<svg xmlns="http://www.w3.org/2000/svg" viewBox="0 0 14 21" width="14" height="21">
	<style>
		tspan { white-space:pre }
		.shp0 { fill: #c53062 } 
	</style>
	<path id="J" class="shp0" d="M1.32,14.32c0.25,-0.68 0.61,-1.33 1.07,-1.94c0.46,-0.61 1.02,-1.15 1.67,-1.63c0.65,-0.48 1.38,-0.84 2.18,-1.09c-0.41,-0.33 -0.8,-0.69 -1.16,-1.06c-0.36,-0.37 -0.67,-0.75 -0.94,-1.13c-0.27,-0.39 -0.48,-0.77 -0.63,-1.16c-0.15,-0.39 -0.23,-0.78 -0.23,-1.17c0,-0.5 0.05,-0.97 0.16,-1.41c0.11,-0.45 0.26,-0.86 0.45,-1.24c0.19,-0.38 0.42,-0.73 0.68,-1.03c0.26,-0.31 0.54,-0.57 0.84,-0.79c0.3,-0.22 0.62,-0.38 0.94,-0.5c0.33,-0.12 0.66,-0.17 0.99,-0.17c0.44,0 0.86,0.11 1.26,0.33c0.41,0.22 0.77,0.58 1.08,1.06c0.32,0.49 0.57,1.11 0.76,1.89c0.19,0.77 0.28,1.7 0.28,2.8c0,0.79 -0.03,1.54 -0.08,2.25c-0.06,0.71 -0.14,1.39 -0.24,2.04c0.3,0.18 0.6,0.36 0.9,0.54c0.3,0.17 0.61,0.35 0.92,0.52c0.06,0.04 0.14,0.08 0.24,0.14c0.09,0.05 0.19,0.11 0.28,0.17c0.09,0.06 0.17,0.12 0.23,0.18c0.06,0.06 0.09,0.12 0.09,0.16c0,0.05 -0.02,0.1 -0.06,0.14c-0.04,0.05 -0.09,0.09 -0.15,0.13c-0.06,0.04 -0.11,0.08 -0.17,0.11c-0.06,0.03 -0.1,0.05 -0.13,0.07c-0.08,0.04 -0.19,0.07 -0.32,0.07c-0.27,0 -0.59,-0.06 -0.96,-0.16c-0.37,-0.1 -0.77,-0.25 -1.2,-0.43c-0.21,0.9 -0.47,1.72 -0.77,2.46c-0.3,0.75 -0.62,1.41 -0.98,2.01c-0.35,0.59 -0.73,1.11 -1.12,1.55c-0.4,0.44 -0.8,0.8 -1.2,1.1c-0.41,0.29 -0.81,0.51 -1.21,0.66c-0.4,0.15 -0.79,0.22 -1.15,0.22c-0.38,0 -0.74,-0.08 -1.07,-0.23c-0.33,-0.16 -0.61,-0.39 -0.86,-0.7c-0.24,-0.31 -0.43,-0.69 -0.57,-1.15c-0.14,-0.46 -0.21,-0.99 -0.21,-1.59c0,-0.66 0.12,-1.32 0.37,-2.01zM2.81,16.8c0,0.5 0.1,0.87 0.29,1.12c0.19,0.25 0.45,0.38 0.76,0.38c0.32,0 0.68,-0.14 1.09,-0.42c0.41,-0.28 0.81,-0.72 1.22,-1.31c0.41,-0.59 0.8,-1.34 1.17,-2.25c0.37,-0.91 0.69,-1.99 0.94,-3.24l-0.27,-0.17c-0.5,0.1 -0.97,0.27 -1.42,0.51c-0.45,0.24 -0.87,0.53 -1.25,0.86c-0.39,0.33 -0.73,0.69 -1.04,1.09c-0.31,0.4 -0.58,0.79 -0.8,1.2c-0.22,0.4 -0.39,0.8 -0.51,1.18c-0.12,0.39 -0.18,0.73 -0.18,1.04zM5.14,4.68c0,0.39 0.08,0.77 0.25,1.16c0.17,0.38 0.41,0.76 0.71,1.14c0.31,0.38 0.67,0.75 1.09,1.12c0.42,0.37 0.89,0.73 1.4,1.09c0.08,-0.67 0.15,-1.38 0.2,-2.13c0.05,-0.75 0.07,-1.54 0.07,-2.38c0,-0.57 -0.04,-1.06 -0.11,-1.45c-0.07,-0.4 -0.17,-0.72 -0.29,-0.96c-0.12,-0.25 -0.27,-0.43 -0.44,-0.54c-0.17,-0.11 -0.34,-0.16 -0.53,-0.16c-0.18,0 -0.36,0.04 -0.55,0.13c-0.18,0.09 -0.36,0.21 -0.54,0.36c-0.17,0.15 -0.34,0.33 -0.5,0.54c-0.16,0.2 -0.29,0.42 -0.4,0.65c-0.11,0.23 -0.21,0.47 -0.27,0.71c-0.07,0.25 -0.1,0.49 -0.1,0.72z" />
</svg>